<?xml version="1.0" encoding="UTF-8"?>
<svg version="1.1" xmlns="http://www.w3.org/2000/svg" width="96" height="96">
<path d="M0 0 C12.16562223 0.39822004 25.0803526 1.87451459 34 11 C37.36850624 15.7369619 37.84262235 20.36017542 37 26 C35.03916912 32.4077152 31.17190678 36.00005239 26 40 C25.34 40.66 24.68 41.32 24 42 C31.59960271 38.62449408 36.96720641 34.48947382 41 27 C42.7543236 21.47122259 42.19996158 17.76505296 39.5625 12.625 C39.08941406 11.81289063 38.61632812 11.00078125 38.12890625 10.1640625 C37 8 37 8 37 5 C40.25813633 6.04725811 41.53606177 7.57016768 43.1875 10.4375 C46.00855282 15.98232797 46.98915612 20.28768515 45.3515625 26.43359375 C42.43372306 34.62598909 37.93761718 39.58922028 30.375 43.8125 C21.06746364 48.09960766 7.2328982 50.31327135 -2.69921875 47.13671875 C-5.73262637 45.63804028 -7.15345889 43.80400686 -9 41 C-9 40.01 -9 39.02 -9 38 C-14.22889671 40.97161181 -14.22889671 40.97161181 -17 46 C-17.31241113 48.53084814 -17.31241113 48.53084814 -16 51 C-9.07273061 56.65491379 -0.45868856 58.5876313 8 61 C8 62.32 8 63.64 8 65 C-3.67307152 65.46010647 -14.17680856 64.81609202 -24 58 C-28.55277143 53.08779925 -29.37930663 49.14274677 -29.265625 42.625 C-28.72481715 37.28054594 -26.79548793 33.67029794 -22.87109375 30.01953125 C-19.41245601 27.25603981 -16.01585167 24.88014874 -12 23 C-20.43435664 25.57952155 -25.8305005 29.15906521 -30.09375 37.015625 C-32.10602915 41.74820745 -32.27324054 45.89950999 -32 51 C-31.01 51.33 -30.02 51.66 -29 52 C-29 52.99 -29 53.98 -29 55 C-29.66 55 -30.32 55 -31 55 C-30.67 56.32 -30.34 57.64 -30 59 C-30.99 59 -31.98 59 -33 59 C-36.85157825 50.01298407 -36.85852806 43.69391391 -33.25390625 34.61328125 C-29.72863288 27.26621619 -24.38153923 23.24787726 -17 20 C-8.67273507 17.16480702 2.77060597 18.39402522 11 21 C12.734375 22.57421875 12.734375 22.57421875 14 24 C14.41870553 21.66928121 14.41870553 21.66928121 14 19 C11.59855425 16.84550034 11.59855425 16.84550034 9 15 C8.505 13.515 8.505 13.515 8 12 C8.33 11.34 8.66 10.68 9 10 C13.83766699 10.41465717 15.85646376 12.4198615 19 16 C20.60725635 19.21451269 20.05748185 22.43612536 20 26 C22.11922127 24.91256712 22.11922127 24.91256712 24 23 C24.83399875 20.08681086 24.83399875 20.08681086 24 17 C19.22497108 11.56177262 12.61040145 9.56826011 6 7 C4.5802601 6.40309093 3.16289837 5.8004274 1.75 5.1875 C0.8425 4.795625 -0.065 4.40375 -1 4 C-0.67 2.68 -0.34 1.36 0 0 Z M29 14 C30 16 30 16 30 16 Z M30 16 C29.86722656 16.68707031 29.73445313 17.37414062 29.59765625 18.08203125 C29.42105469 18.98308594 29.24445313 19.88414063 29.0625 20.8125 C28.88847656 21.70582031 28.71445313 22.59914063 28.53515625 23.51953125 C28 26 28 26 27 29 C25.2578125 30.0546875 25.2578125 30.0546875 23 31 C22.17242187 31.35320313 21.34484375 31.70640625 20.4921875 32.0703125 C19.62851562 32.41835938 18.76484375 32.76640625 17.875 33.125 C17.00617187 33.47820313 16.13734375 33.83140625 15.2421875 34.1953125 C13 35 13 35 11 35 C11.0825 33.906875 11.165 32.81375 11.25 31.6875 C11.39138979 28.02384052 11.39138979 28.02384052 9.25 26.125 C3.30518718 23.15259359 -0.57388506 24.74896238 -6.734375 26.765625 C-14.23033736 29.59902704 -20.32178309 33.64356619 -24 41 C-24.0689472 42.37342831 -24.08467708 43.75002102 -24.0625 45.125 C-24.041875 46.40375 -24.02125 47.6825 -24 49 C-22.03753169 46.28650393 -22.03753169 46.28650393 -21.28125 44.16796875 C-18.72735131 37.69383556 -14.26735268 34.76223891 -8 32 C-7.01 32 -6.02 32 -5 32 C-3.66666667 34.66666667 -2.33333333 37.33333333 -1 40 C-0.01 39.67 0.98 39.34 2 39 C2.33 39.66 2.66 40.32 3 41 C8.62554741 42.48040721 12.16397717 41.57903003 17.125 38.875 C17.71925781 38.57851563 18.31351563 38.28203125 18.92578125 37.9765625 C24.62678945 35.00650083 29.32501857 30.91311685 32 25 C32.41725678 21.37400578 32.41725678 21.37400578 32 18 C31.34 17.34 30.68 16.68 30 16 Z M16 27 C16 27.66 16 28.32 16 29 C16.99 28.67 17.98 28.34 19 28 C18.01 27.67 17.02 27.34 16 27 Z M-23 49 C-22 51 -22 51 -22 51 Z " fill="#000000" transform="translate(43,14)"/>
<path d="M0 0 C2.56089223 0.4390101 4.75292616 0.87830691 7.09375 2.03125 C11.19290041 3.39763347 15.02508389 3.2129817 19.3125 3.125 C20.56643555 3.11146484 20.56643555 3.11146484 21.84570312 3.09765625 C23.89725969 3.07420989 25.94866777 3.03834266 28 3 C28 4.32 28 5.64 28 7 C21.01314291 10.10526982 12.55332982 10.20553097 5.375 7.625 C2 6 2 6 0 4 C0 2.68 0 1.36 0 0 Z " fill="#000000" transform="translate(37,63)"/>
<path d="M0 0 C3.89490828 0.63256722 7.15198989 1.83362512 10.75 3.4375 C15.82243638 5.60960766 20.58088261 7.00649514 26 8 C26 8.99 26 9.98 26 11 C16.77234009 10.77543306 7.06111809 8.25795774 0 2 C0 1.34 0 0.68 0 0 Z " fill="#000000" transform="translate(16,77)"/>
<path d="M0 0 C0 0.99 0 1.98 0 3 C-8.10869583 7.50483101 -15.75931169 10.00884528 -25 8 C-24.67 7.01 -24.34 6.02 -24 5 C-22.6078125 5.0928125 -22.6078125 5.0928125 -21.1875 5.1875 C-13.5773331 5.20306271 -6.85654988 0 0 0 Z " fill="#000000" transform="translate(85,71)"/>
<path d="M0 0 C8.23988631 -0.41199432 16.98564618 0.32376412 24 5 C23.67 5.99 23.34 6.98 23 8 C22.09378906 7.72285156 21.18757813 7.44570312 20.25390625 7.16015625 C13.49534276 5.150467 7.06440354 3.48720024 0 3 C0 2.01 0 1.02 0 0 Z " fill="#000000" transform="translate(51,7)"/>
<path d="M0 0 C0 0.99 0 1.98 0 3 C-0.78503906 3.10957031 -1.57007812 3.21914063 -2.37890625 3.33203125 C-8.42347071 4.2442784 -13.47807712 5.41527014 -19 8 C-19.99 8 -20.98 8 -22 8 C-21.4375 6.1875 -21.4375 6.1875 -20 4 C-13.1553662 0.51311108 -7.51379187 -0.1273524 0 0 Z " fill="#000000" transform="translate(37,15)"/>
<path d="M0 0 C0 1.32 0 2.64 0 4 C-0.763125 3.690625 -1.52625 3.38125 -2.3125 3.0625 C-6.18370069 1.53202531 -9.04259006 0.88367 -13.1875 0.9375 C-14.08855469 0.94652344 -14.98960938 0.95554687 -15.91796875 0.96484375 C-16.94857422 0.98224609 -16.94857422 0.98224609 -18 1 C-18.33 0.01 -18.66 -0.98 -19 -2 C-11.95591454 -4.34802849 -6.56628878 -2.81412376 0 0 Z " fill="#000000" transform="translate(49,27)"/>
<path d="M0 0 C0.99 0 1.98 0 3 0 C2.76953125 1.828125 2.76953125 1.828125 2 4 C0.07421875 5.484375 0.07421875 5.484375 -2.3125 6.75 C-3.09238281 7.17796875 -3.87226562 7.6059375 -4.67578125 8.046875 C-7 9 -7 9 -11 9 C-9.77122115 5.31366345 -8.85395804 5.10504797 -5.5 3.375 C-2.55480881 1.95980348 -2.55480881 1.95980348 0 0 Z " fill="#000000" transform="translate(82,59)"/>
<path d="M0 0 C1.32 0 2.64 0 4 0 C3.67 0.598125 3.34 1.19625 3 1.8125 C1.79212012 4.05386471 1.79212012 4.05386471 2 7 C2.94978897 9.15028304 2.94978897 9.15028304 4 11 C1.625 10.6875 1.625 10.6875 -1 10 C-3 7 -3 7 -2.75 4.4375 C-2 2 -2 2 0 0 Z " fill="#000000" transform="translate(30,56)"/>
<path d="M0 0 C4.95 0 9.9 0 15 0 C15 0.99 15 1.98 15 3 C10.19651495 4.60116168 4.8351138 4.6117046 0 3 C0 2.01 0 1.02 0 0 Z " fill="#000000" transform="translate(48,82)"/>
<path d="M0 0 C-0.33 0.99 -0.66 1.98 -1 3 C-4.3125 4.125 -4.3125 4.125 -8 5 C-9.2065625 5.309375 -9.2065625 5.309375 -10.4375 5.625 C-10.953125 5.74875 -11.46875 5.8725 -12 6 C-11.66411682 3.48087612 -11.42645046 2.32803881 -9.375 0.75 C-6.1989627 -0.25295915 -3.30771122 -0.12721966 0 0 Z " fill="#000000" transform="translate(25,27)"/>
<path d="M0 0 C0 0.66 0 1.32 0 2 C-1.60256108 2.50512244 -3.20711792 3.00391627 -4.8125 3.5 C-6.15248047 3.91765625 -6.15248047 3.91765625 -7.51953125 4.34375 C-10 5 -10 5 -13 5 C-13 4.01 -13 3.02 -13 2 C-8.50343896 -0.24828052 -4.92127034 -0.16682272 0 0 Z " fill="#000000" transform="translate(42,7)"/>
<path d="M0 0 C0.99 0 1.98 0 3 0 C2.67 0.99 2.34 1.98 2 3 C1.34 3 0.68 3 0 3 C0 2.01 0 1.02 0 0 Z " fill="#000000" transform="translate(47,41)"/>
<path d="M0 0 C0.99 0 1.98 0 3 0 C3 0.99 3 1.98 3 3 C2.01 2.67 1.02 2.34 0 2 C0 1.34 0 0.68 0 0 Z " fill="#000000" transform="translate(81,37)"/>
</svg>
